# xmcd
#
# Track frame offsets:
#	150
#	4766
#	34926
#	75486
#	113287
#	151959
#	186215
#	230667
#
# Disc length: 3138 seconds
#
# Revision: 1
# Processed by: cddbd v1.5.2PL0 Copyright (c) Steve Scherf et al.
# Submitted via: EasyCDDAExtractor 16.0.9.1
#
DISCID=510c4008
DTITLE=Various Artist - TNCD224:Thơ Nhạc Giao Duyên Vol.2
DYEAR=2000
DGENRE=Country
TTITLE0=Hồng Vân - Lời Giới Thiệu
TTITLE1=Hồng Vân and Phi Khanh - Thơ: Tiếng Thu (Lưu Trọng Lư) and Nhạc: Thu Quy
TTITLE1=ến Rũ (Đoàn Chuẩn - Từ Linh)
TTITLE2=Hồng Vân and Duy Trác - Thơ and Nhạc: Áo Lụa Hà Đông (Thơ: Nguyên Sa, Nh
TTITLE2=ạc: Ngô Thụy Miên)
TTITLE3=Hồng Vân and Như Quỳnh - Thơ: Tình Tự Dưới Hoa (Đinh Hùng) and Nhạc: Khi
TTITLE3=Mình Xa Nhau (Anh Bằng)
TTITLE4=Hồng Vân and Thanh Hà - Thơ and Nhạc: Cần Thiết (Thơ: Nguyên Sa, Nhạc: N
TTITLE4=gô Thụy Miên)
TTITLE5=Hồng Vân and Lệ Quyên - Thơ and Nhạc: Ngậm Ngùi (Thơ: Huy Cận, Nhạc: Phạ
TTITLE5=m Duy)
TTITLE6=Đoàn Yên Linh and Trần Đức - Thơ: Tương Tư Chiều (Xuân Diệu), Nhạc: Nắ
TTITLE6=ng Paris Nắng Sài Gòn (Nhạc: Ngô Thụy Miên, Thơ: Nguyên Sa)
TTITLE7=Hồng Vân - Lời Kết Thúc
EXTD=
EXTT0=
EXTT1=
EXTT2=
EXTT3=
EXTT4=
EXTT5=
EXTT6=
EXTT7=
PLAYORDER=
